<?xml version="1.0" encoding="UTF-8"?>
<svg width="113px" height="251px" viewBox="0 0 113 251" version="1.1" xmlns="http://www.w3.org/2000/svg" xmlns:xlink="http://www.w3.org/1999/xlink">
    <!-- Generator: Sketch 43.1 (39012) - http://www.bohemiancoding.com/sketch -->
    <title>Temperature</title>
    <desc>Created with Sketch.</desc>
    <defs></defs>
    <g id="Page-1" stroke="none" stroke-width="1" fill="none" fill-rule="evenodd">
        <g id="Splash1024x1024" transform="translate(0.000000, -147.000000)" fill-rule="nonzero" fill="#FFFFFF">
            <g id="Temperature" transform="translate(-3.000000, 147.000000)">
                <path d="M92.845,147.251 L92.845,34.744 C92.845,15.586 77.255,0 58.093,0 C38.934,0 23.347,15.586 23.347,34.744 L23.347,147.25 C9.113,158.093 0.73,174.84 0.73,192.825 C0.73,224.456 26.462,250.189 58.093,250.189 C89.726,250.189 115.46,224.456 115.46,192.825 C115.46,174.842 107.077,158.095 92.845,147.251 Z M58.093,235.189 C34.734,235.189 15.73,216.185 15.73,192.825 C15.73,178.531 22.918,165.288 34.958,157.4 C37.073,156.014 38.348,153.655 38.348,151.127 L38.348,34.744 C38.348,23.857 47.206,15 58.094,15 C68.986,15 77.846,23.857 77.846,34.744 L77.846,151.127 C77.846,153.656 79.12,156.014 81.236,157.4 C93.274,165.289 100.462,178.532 100.462,192.825 C100.46,216.185 81.454,235.189 58.093,235.189 Z" id="Shape"></path>
                <path d="M65.595,169.042 L65.595,69.924 C65.595,65.782 62.238,62.424 58.095,62.424 C53.952,62.424 50.595,65.782 50.595,69.924 L50.595,169.042 C40.491,172.225 33.165,181.664 33.165,192.825 C33.165,206.592 44.325,217.756 58.095,217.756 C71.868,217.756 83.027,206.592 83.027,192.825 C83.026,181.663 75.7,172.223 65.595,169.042 Z" id="Shape"></path>
            </g>
        </g>
    </g>
</svg>