<?xml version="1.0" encoding="UTF-8"?>
<svg width="580px" height="612px" viewBox="0 0 580 612" version="1.1" xmlns="http://www.w3.org/2000/svg" xmlns:xlink="http://www.w3.org/1999/xlink">
    <!-- Generator: Sketch 43.1 (39012) - http://www.bohemiancoding.com/sketch -->
    <title>Wind</title>
    <desc>Created with Sketch.</desc>
    <defs></defs>
    <g id="Page-1" stroke="none" stroke-width="1" fill="none" fill-rule="evenodd">
        <g id="Splash1024x1024" transform="translate(-437.000000, -49.000000)" fill-rule="nonzero" fill="#FFFFFF">
            <g id="Wind" transform="translate(437.000000, 49.000000)">
                <path d="M27.411,335.593 L464.614,335.593 C528.001,335.593 579.566,284.025 579.566,220.641 C579.566,157.35 528.149,105.841 464.889,105.691 C458.657,105.597 418.192,106.157 387.976,135.618 C367.732,155.355 357.47,182.475 357.47,216.221 C357.47,231.122 369.548,243.201 384.45,243.201 C399.351,243.201 411.428,231.121 411.428,216.221 C411.428,197.739 416.125,183.705 425.383,174.512 C439.812,160.182 462.258,159.666 464.053,159.648 C464.305,159.656 464.273,159.652 464.613,159.652 C498.244,159.652 525.606,187.012 525.606,220.641 C525.606,254.272 498.246,281.632 464.613,281.632 L27.411,281.632 C12.51,281.632 0.431,293.712 0.431,308.612 C0.431,323.513 12.51,335.593 27.411,335.593 Z" id="Shape"></path>
                <path d="M27.411,229.908 L235.804,229.908 C299.187,229.908 350.754,178.34 350.754,114.956 C350.754,51.661 299.339,0.15 236.077,0.006 C229.771,-0.082 189.37,0.48 159.162,29.933 C138.92,49.672 128.656,76.792 128.656,110.538 C128.656,125.439 140.734,137.52 155.636,137.52 C170.538,137.52 182.614,125.44 182.614,110.538 C182.614,92.056 187.311,78.022 196.569,68.829 C210.996,54.501 233.442,53.981 235.243,53.963 C235.495,53.971 235.461,53.967 235.803,53.967 C269.432,53.967 296.794,81.327 296.794,114.956 C296.794,148.587 269.434,175.947 235.803,175.947 L27.411,175.947 C12.51,175.947 0.431,188.027 0.431,202.929 C0.431,217.831 12.51,229.908 27.411,229.908 Z" id="Shape"></path>
                <path d="M464.614,382.093 L27.411,382.093 C12.51,382.093 0.431,394.173 0.431,409.073 C0.431,423.972 12.509,436.053 27.411,436.053 L464.614,436.053 C498.245,436.053 525.607,463.413 525.607,497.042 C525.607,530.673 498.247,558.033 464.614,558.033 C464.275,558.033 464.306,558.027 464.054,558.037 C462.257,558.019 439.811,557.501 425.384,543.173 C416.126,533.98 411.429,519.946 411.429,501.462 C411.429,486.561 399.352,474.48 384.451,474.48 C369.55,474.48 357.471,486.56 357.471,501.462 C357.471,535.21 367.733,562.33 387.977,582.067 C416.976,610.344 455.384,612.002 463.971,612 C464.332,612 464.638,611.998 464.89,611.994 C528.15,611.844 579.567,560.335 579.567,497.044 C579.567,433.659 528.001,382.093 464.614,382.093 Z" id="Shape"></path>
            </g>
        </g>
    </g>
</svg>