<svg xmlns="http://www.w3.org/2000/svg" xmlns:xlink="http://www.w3.org/1999/xlink" width="1024px" height="1024px" viewBox="0 0 1024 1024" version="1.1" style="background: #3498DB;">
    <!-- Generator: Sketch 43.1 (39012) - http://www.bohemiancoding.com/sketch -->
    <title>Splash1024x1024</title>
    <desc>Created with Sketch.</desc>
    <defs>
        <path d="M42.7266399,134.46741 C63.0632889,101.599369 95.598819,89.0727664 179.881558,89.0727664 C264.164296,89.0727664 298.781013,101.395834 320.48066,134.46741 C340.883015,165.561835 226.669013,178.145533 245.342569,217.40477 C267.129288,263.20911 102.755032,260.271783 118.04218,217.40477 C135.35958,168.844682 23.3614569,165.765371 42.7266399,134.46741 Z" id="path-1"/>
    </defs>
    <g id="Page-1" stroke="none" stroke-width="1" fill="none" fill-rule="evenodd">
        <g id="Splash1024x1024">
            <text id="LiftOff" font-family="Barlow-ExtraBold, Barlow" font-size="150" font-weight="600" letter-spacing="-0.0625000075" fill="#FFFFFF">
                <tspan x="284.5875" y="756">LiftOff</tspan>
            </text>
            <g id="Drone-2.12" transform="translate(512.301768, 395.131142) rotate(20.000000) translate(-512.301768, -395.131142) translate(328.801768, 237.631142)">
                <rect id="Rectangle-20" fill="#FFFFFF" transform="translate(299.398944, 258.509092) rotate(90.000000) translate(-299.398944, -258.509092) " x="243.097453" y="238.265281" width="112.602981" height="40.4876211" rx="20.2438105"/>
                <rect id="Rectangle-20" fill="#FFFFFF" transform="translate(266.575947, 194.274268) rotate(37.000000) translate(-266.575947, -194.274268) " x="207.219825" y="174.030458" width="118.712246" height="40.4876211" rx="20.2438105"/>
                <rect id="Rectangle-20" fill="#FFFFFF" transform="translate(63.808356, 258.509092) rotate(90.000000) translate(-63.808356, -258.509092) " x="7.50686541" y="238.265281" width="112.602981" height="40.4876211" rx="20.2438105"/>
                <rect id="Rectangle-5" fill="#FFFFFF" x="-1.70530257e-13" y="24.292573" width="131.245756" height="40.4876211" rx="8"/>
                <rect id="Rectangle-5" fill="#FFFFFF" x="235.590588" y="24.2925727" width="131.245756" height="40.4876211" rx="8"/>
                <rect id="Rectangle-20" fill="#FFFFFF" transform="translate(95.492098, 194.274268) scale(-1, 1) rotate(37.000000) translate(-95.492098, -194.274268) " x="36.1359755" y="174.030458" width="118.712246" height="40.4876211" rx="20.2438105"/>
                <g id="Rectangle-9">
                    <use fill="#FFFFFF" fill-rule="evenodd" xlink:href="#path-1"/>
                    <path stroke="#3498DB" stroke-width="7" d="M45.7029826,136.308981 C65.8016435,103.825576 98.7687223,92.5727664 179.881558,92.5727664 C261.707372,92.5727664 296.27767,103.960542 317.554347,136.387487 C323.0384,144.745516 316.338826,151.982377 294.55108,163.366375 C292.672247,164.348057 290.678332,165.367741 288.140975,166.649051 C287.063331,167.193238 282.646825,169.414293 281.523266,169.98169 C265.055571,178.297878 256.373429,183.451991 249.535347,189.837308 C240.099149,198.648715 237.140537,208.309207 242.181892,218.908138 C246.327893,227.62468 242.531548,234.356204 231.046689,239.569641 C219.910371,244.624861 202.700705,247.34337 184.164959,247.156705 C165.713423,246.970888 147.974741,243.924539 135.936728,238.718105 C123.473516,233.327773 118.505772,226.524634 121.338824,218.580413 C125.813707,206.032299 122.804231,195.276755 113.503114,186.054925 C106.536671,179.147867 97.1497277,173.685493 81.6326798,166.537649 C81.2047392,166.340521 68.5192821,160.59934 65.130275,158.984674 C46.2962143,150.011335 40.8684956,144.122467 45.7029826,136.308981 Z"/>
                </g>
                <rect id="Rectangle-18" fill="#FFFFFF" x="47.041193" y="-9.57811608e-12" width="37.5343271" height="153.85296" rx="18.7671635"/>
                <rect id="Rectangle-18" fill="#FFFFFF" x="280.631781" y="1.04165565e-11" width="37.5343271" height="153.85296" rx="18.7671635"/>
                <rect id="Rectangle-17" fill="#3498DB" x="47.041193" y="64.7801938" width="37.5420406" height="6.99066839"/>
                <rect id="Rectangle-17" fill="#3498DB" x="47.041193" y="17.195048" width="37.5420406" height="6.99066839"/>
                <rect id="Rectangle-17" fill="#3498DB" x="280.631781" y="64.7801938" width="37.5343271" height="8.09752422"/>
                <rect id="Rectangle-17" fill="#3498DB" x="280.631781" y="16.1950484" width="37.5343271" height="8.09752422"/>
            </g>
            <text id="Ready-for..." font-family="Barlow-ExtraBold, Barlow" font-size="30" font-weight="600" letter-spacing="-0.0343750045" fill="#FFFFFF">
                <tspan x="286.9725" y="636.368858">Ready for...</tspan>
            </text>
        </g>
    </g>
</svg>