<svg xmlns="http://www.w3.org/2000/svg" xmlns:xlink="http://www.w3.org/1999/xlink" viewBox="0 0 50 50" version="1.1" style="fill:#fff; height: 15px; width: 15px;">
<g id="surface1">
<path style=" " d="M 39.9375 8.875 C 39.457031 8.917969 39.074219 9.300781 39.03125 9.78125 L 38.96875 10 L 30 10 L 30 12 L 38.53125 12 L 37.53125 16.4375 C 37.328125 17.359375 36.539063 18 35.59375 18 L 14.40625 18 C 13.464844 18 12.671875 17.355469 12.46875 16.4375 L 10.96875 9.78125 C 10.917969 9.511719 10.757813 9.277344 10.527344 9.128906 C 10.296875 8.980469 10.015625 8.933594 9.75 9 C 9.296875 9.117188 8.984375 9.53125 9 10 L 0 10 L 0 12 L 9.4375 12 L 10.5 16.875 C 10.90625 18.699219 12.535156 20 14.40625 20 L 19 20 L 19 21.625 C 19 21.753906 19.019531 21.875 19.03125 22 L 18.90625 22 C 14.003906 22 10 26.003906 10 30.90625 L 10 39 C 9.996094 39.359375 10.183594 39.695313 10.496094 39.878906 C 10.808594 40.058594 11.191406 40.058594 11.503906 39.878906 C 11.816406 39.695313 12.003906 39.359375 12 39 L 12 30.90625 C 12 27.085938 15.085938 24 18.90625 24 L 19.71875 24 C 20.503906 25.195313 21.851563 26 23.375 26 L 26.625 26 C 28.148438 26 29.496094 25.195313 30.28125 24 L 31.09375 24 C 34.914063 24 38 27.085938 38 30.90625 L 38 39 C 37.996094 39.359375 38.183594 39.695313 38.496094 39.878906 C 38.808594 40.058594 39.191406 40.058594 39.503906 39.878906 C 39.816406 39.695313 40.003906 39.359375 40 39 L 40 30.90625 C 40 26.003906 35.996094 22 31.09375 22 L 30.96875 22 C 30.980469 21.875 31 21.753906 31 21.625 L 31 20 L 35.59375 20 C 37.464844 20 39.09375 18.699219 39.5 16.875 L 40.96875 10.21875 C 41.089844 9.894531 41.035156 9.535156 40.824219 9.261719 C 40.613281 8.988281 40.28125 8.84375 39.9375 8.875 Z M 12.5625 10 L 13 12 L 20 12 L 20 10 Z M 42.4375 10 L 42 12 L 50 12 L 50 10 Z M 21 20 L 29 20 L 29 21.625 C 29 22.941406 27.941406 24 26.625 24 L 23.375 24 C 22.058594 24 21 22.941406 21 21.625 Z "></path>
</g>
</svg>