<svg xmlns="http://www.w3.org/2000/svg" xmlns:xlink="http://www.w3.org/1999/xlink" viewBox="0 0 24 24" version="1.1" style="fill:#fff; height: 15px; width: 15px;">
<g id="surface1">
<path style=" " d="M 5 3 L 5 4 L 2 4 L 2 6 L 4.28125 6 L 4.59375 6.9375 C 5.003906 8.164063 6.144531 9 7.4375 9 L 8.1875 9 L 8.84375 12.1875 C 8.9375 12.65625 9.335938 13 9.8125 13 L 14.1875 13 C 14.664063 13 15.0625 12.65625 15.15625 12.1875 L 15.8125 9 L 16.5625 9 C 17.855469 9 18.996094 8.164063 19.40625 6.9375 L 19.71875 6 L 22 6 L 22 4 L 19 4 L 19 3 L 18 3 L 18 4 L 15 4 L 15 6 L 17.625 6 L 17.5 6.3125 C 17.363281 6.722656 16.992188 7 16.5625 7 L 7.4375 7 C 7.007813 7 6.636719 6.722656 6.5 6.3125 L 6.375 6 L 9 6 L 9 4 L 6 4 L 6 3 Z M 7.71875 11.0625 C 5.578125 11.546875 4 13.242188 4 15.1875 L 4 20 L 6 20 L 6 15.1875 C 6 14.402344 6.714844 13.398438 8.125 13.09375 C 8.097656 13.019531 8.078125 12.957031 8.0625 12.875 Z M 16.28125 11.0625 L 15.9375 12.875 C 15.921875 12.957031 15.902344 13.019531 15.875 13.09375 C 17.285156 13.398438 18 14.402344 18 15.1875 L 18 20 L 20 20 L 20 15.1875 C 20 13.242188 18.421875 11.546875 16.28125 11.0625 Z "></path>
</g>
</svg>