<svg xmlns="http://www.w3.org/2000/svg" xmlns:xlink="http://www.w3.org/1999/xlink" viewBox="0 0 26 26" version="1.1" style="fill:#fff; height: 15px; width: 15px;">
<g id="surface1">
<path style=" " d="M 10 0 C 9.449219 0 9 0.449219 9 1 L 9 3 C 9 3.550781 9.449219 4 10 4 L 11 4 C 11 4.550781 11.449219 5 12 5 L 14 5 C 14.550781 5 15 4.550781 15 4 L 16 4 C 16.550781 4 17 3.550781 17 3 L 17 1 C 17 0.449219 16.550781 0 16 0 Z M 20.625 4.9375 L 19.0625 6.46875 L 21.5 8.90625 L 23.0625 7.375 Z M 13 6.1875 C 7.582031 6.1875 3.1875 10.578125 3.1875 16 C 3.1875 21.421875 7.582031 25.8125 13 25.8125 C 18.417969 25.8125 22.8125 21.421875 22.8125 16 C 22.8125 10.578125 18.417969 6.1875 13 6.1875 Z M 13 8.53125 C 17.125 8.53125 20.46875 11.871094 20.46875 16 C 20.46875 20.128906 17.125 23.46875 13 23.46875 C 8.871094 23.46875 5.53125 20.128906 5.53125 16 C 5.53125 11.871094 8.871094 8.53125 13 8.53125 Z M 13.03125 9.71875 C 12.628906 9.71875 12.449219 10.074219 12.4375 10.28125 L 12.21875 14.375 C 11.605469 14.664063 11.1875 15.277344 11.1875 16 C 11.1875 17.003906 11.996094 17.8125 13 17.8125 C 14 17.8125 14.8125 17.003906 14.8125 16 C 14.8125 15.277344 14.394531 14.664063 13.78125 14.375 L 13.59375 10.28125 C 13.582031 10.074219 13.4375 9.71875 13.03125 9.71875 Z "></path>
</g>
</svg>